# xmcd CD database file
#
# Track frame offsets:
#	150
#	26621
#	51100
#	72259
#	96959
#	117093
#	141271
#	173055
#	196523
#
# Disc length: 3043 seconds
#
# Revision: 0
# Processed by: cddbd v1.5.2PL0 Copyright (c) Steve Scherf et al.
# Submitted via: CDex 1.74
#
DISCID=740be109
DTITLE=Richard Leach's 7 Stars of Jazz - Seranade in Blue Disc 2
DYEAR=2010
DGENRE=Jazz
TTITLE0=Dardanella
TTITLE1=Seranade in Blue
TTITLE2=Tangerine
TTITLE3=Swing That Music
TTITLE4=Montmartre
TTITLE5=Nothing Blues
TTITLE6=Georgia Cabin
TTITLE7=On the Sunny Side of the Street
TTITLE8=Everybody Loves my Baby
EXTD=YEAR: 2010
EXTT0=
EXTT1=
EXTT2=
EXTT3=
EXTT4=
EXTT5=
EXTT6=
EXTT7=
EXTT8=
PLAYORDER=
